<svg width="795" height="171" viewBox="0 0 795 171" xmlns="http://www.w3.org/2000/svg">

  <rect width="795" height="171" rx="14" fill="#010409"/>
  <rect width="795" height="171" rx="14" fill="none" stroke="#21262d" stroke-width="1"/>

  <!-- top accent -->
  <rect x="24" y="0" width="80" height="2" rx="1" fill="#22d3ee" opacity="0.8"/>

  <!-- month labels -->
  <text x="32" y="16" font-family="'SF Mono','Fira Code',monospace" font-size="9" fill="#484f58">Apr</text><text x="88" y="16" font-family="'SF Mono','Fira Code',monospace" font-size="9" fill="#484f58">May</text><text x="144" y="16" font-family="'SF Mono','Fira Code',monospace" font-size="9" fill="#484f58">Jun</text><text x="214" y="16" font-family="'SF Mono','Fira Code',monospace" font-size="9" fill="#484f58">Jul</text><text x="270" y="16" font-family="'SF Mono','Fira Code',monospace" font-size="9" fill="#484f58">Aug</text><text x="340" y="16" font-family="'SF Mono','Fira Code',monospace" font-size="9" fill="#484f58">Sep</text><text x="396" y="16" font-family="'SF Mono','Fira Code',monospace" font-size="9" fill="#484f58">Oct</text><text x="452" y="16" font-family="'SF Mono','Fira Code',monospace" font-size="9" fill="#484f58">Nov</text><text x="522" y="16" font-family="'SF Mono','Fira Code',monospace" font-size="9" fill="#484f58">Dec</text><text x="578" y="16" font-family="'SF Mono','Fira Code',monospace" font-size="9" fill="#484f58">Jan</text><text x="634" y="16" font-family="'SF Mono','Fira Code',monospace" font-size="9" fill="#484f58">Feb</text><text x="690" y="16" font-family="'SF Mono','Fira Code',monospace" font-size="9" fill="#484f58">Mar</text><text x="760" y="16" font-family="'SF Mono','Fira Code',monospace" font-size="9" fill="#484f58">Apr</text>

  <!-- day labels -->
  <text x="26" y="51" text-anchor="end" font-family="'SF Mono','Fira Code',monospace" font-size="9" fill="#30363d">Mon</text><text x="26" y="79" text-anchor="end" font-family="'SF Mono','Fira Code',monospace" font-size="9" fill="#30363d">Wed</text><text x="26" y="107" text-anchor="end" font-family="'SF Mono','Fira Code',monospace" font-size="9" fill="#30363d">Fri</text>

  <!-- cells -->
  <rect x="32" y="98" width="11" height="11" rx="2" fill="#22d3ee" fill-opacity="0.25"><title>2025-04-11: 4</title></rect><rect x="32" y="112" width="11" height="11" rx="2" fill="#161b22" fill-opacity="1"><title>2025-04-12: 0</title></rect><rect x="46" y="28" width="11" height="11" rx="2" fill="#161b22" fill-opacity="1"><title>2025-04-13: 0</title></rect><rect x="46" y="42" width="11" height="11" rx="2" fill="#161b22" fill-opacity="1"><title>2025-04-14: 0</title></rect><rect x="46" y="56" width="11" height="11" rx="2" fill="#22d3ee" fill-opacity="0.25"><title>2025-04-15: 4</title></rect><rect x="46" y="70" width="11" height="11" rx="2" fill="#161b22" fill-opacity="1"><title>2025-04-16: 0</title></rect><rect x="46" y="84" width="11" height="11" rx="2" fill="#161b22" fill-opacity="1"><title>2025-04-17: 0</title></rect><rect x="46" y="98" width="11" height="11" rx="2" fill="#161b22" fill-opacity="1"><title>2025-04-18: 0</title></rect><rect x="46" y="112" width="11" height="11" rx="2" fill="#161b22" fill-opacity="1"><title>2025-04-19: 0</title></rect><rect x="60" y="28" width="11" height="11" rx="2" fill="#22d3ee" fill-opacity="0.25"><title>2025-04-20: 5</title></rect><rect x="60" y="42" width="11" height="11" rx="2" fill="#22d3ee" fill-opacity="0.25"><title>2025-04-21: 1</title></rect><rect x="60" y="56" width="11" height="11" rx="2" fill="#161b22" fill-opacity="1"><title>2025-04-22: 0</title></rect><rect x="60" y="70" width="11" height="11" rx="2" fill="#161b22" fill-opacity="1"><title>2025-04-23: 0</title></rect><rect x="60" y="84" width="11" height="11" rx="2" fill="#161b22" fill-opacity="1"><title>2025-04-24: 0</title></rect><rect x="60" y="98" width="11" height="11" rx="2" fill="#161b22" fill-opacity="1"><title>2025-04-25: 0</title></rect><rect x="60" y="112" width="11" height="11" rx="2" fill="#161b22" fill-opacity="1"><title>2025-04-26: 0</title></rect><rect x="74" y="28" width="11" height="11" rx="2" fill="#161b22" fill-opacity="1"><title>2025-04-27: 0</title></rect><rect x="74" y="42" width="11" height="11" rx="2" fill="#22d3ee" fill-opacity="0.25"><title>2025-04-28: 3</title></rect><rect x="74" y="56" width="11" height="11" rx="2" fill="#161b22" fill-opacity="1"><title>2025-04-29: 0</title></rect><rect x="74" y="70" width="11" height="11" rx="2" fill="#22d3ee" fill-opacity="0.25"><title>2025-04-30: 1</title></rect><rect x="74" y="84" width="11" height="11" rx="2" fill="#22d3ee" fill-opacity="0.45"><title>2025-05-01: 16</title></rect><rect x="74" y="98" width="11" height="11" rx="2" fill="#161b22" fill-opacity="1"><title>2025-05-02: 0</title></rect><rect x="74" y="112" width="11" height="11" rx="2" fill="#161b22" fill-opacity="1"><title>2025-05-03: 0</title></rect><rect x="88" y="28" width="11" height="11" rx="2" fill="#161b22" fill-opacity="1"><title>2025-05-04: 0</title></rect><rect x="88" y="42" width="11" height="11" rx="2" fill="#161b22" fill-opacity="1"><title>2025-05-05: 0</title></rect><rect x="88" y="56" width="11" height="11" rx="2" fill="#161b22" fill-opacity="1"><title>2025-05-06: 0</title></rect><rect x="88" y="70" width="11" height="11" rx="2" fill="#22d3ee" fill-opacity="0.25"><title>2025-05-07: 5</title></rect><rect x="88" y="84" width="11" height="11" rx="2" fill="#161b22" fill-opacity="1"><title>2025-05-08: 0</title></rect><rect x="88" y="98" width="11" height="11" rx="2" fill="#161b22" fill-opacity="1"><title>2025-05-09: 0</title></rect><rect x="88" y="112" width="11" height="11" rx="2" fill="#161b22" fill-opacity="1"><title>2025-05-10: 0</title></rect><rect x="102" y="28" width="11" height="11" rx="2" fill="#161b22" fill-opacity="1"><title>2025-05-11: 0</title></rect><rect x="102" y="42" width="11" height="11" rx="2" fill="#22d3ee" fill-opacity="0.25"><title>2025-05-12: 4</title></rect><rect x="102" y="56" width="11" height="11" rx="2" fill="#161b22" fill-opacity="1"><title>2025-05-13: 0</title></rect><rect x="102" y="70" width="11" height="11" rx="2" fill="#22d3ee" fill-opacity="0.25"><title>2025-05-14: 6</title></rect><rect x="102" y="84" width="11" height="11" rx="2" fill="#161b22" fill-opacity="1"><title>2025-05-15: 0</title></rect><rect x="102" y="98" width="11" height="11" rx="2" fill="#22d3ee" fill-opacity="0.25"><title>2025-05-16: 6</title></rect><rect x="102" y="112" width="11" height="11" rx="2" fill="#161b22" fill-opacity="1"><title>2025-05-17: 0</title></rect><rect x="116" y="28" width="11" height="11" rx="2" fill="#22d3ee" fill-opacity="0.25"><title>2025-05-18: 1</title></rect><rect x="116" y="42" width="11" height="11" rx="2" fill="#161b22" fill-opacity="1"><title>2025-05-19: 0</title></rect><rect x="116" y="56" width="11" height="11" rx="2" fill="#161b22" fill-opacity="1"><title>2025-05-20: 0</title></rect><rect x="116" y="70" width="11" height="11" rx="2" fill="#161b22" fill-opacity="1"><title>2025-05-21: 0</title></rect><rect x="116" y="84" width="11" height="11" rx="2" fill="#161b22" fill-opacity="1"><title>2025-05-22: 0</title></rect><rect x="116" y="98" width="11" height="11" rx="2" fill="#161b22" fill-opacity="1"><title>2025-05-23: 0</title></rect><rect x="116" y="112" width="11" height="11" rx="2" fill="#161b22" fill-opacity="1"><title>2025-05-24: 0</title></rect><rect x="130" y="28" width="11" height="11" rx="2" fill="#161b22" fill-opacity="1"><title>2025-05-25: 0</title></rect><rect x="130" y="42" width="11" height="11" rx="2" fill="#161b22" fill-opacity="1"><title>2025-05-26: 0</title></rect><rect x="130" y="56" width="11" height="11" rx="2" fill="#161b22" fill-opacity="1"><title>2025-05-27: 0</title></rect><rect x="130" y="70" width="11" height="11" rx="2" fill="#161b22" fill-opacity="1"><title>2025-05-28: 0</title></rect><rect x="130" y="84" width="11" height="11" rx="2" fill="#161b22" fill-opacity="1"><title>2025-05-29: 0</title></rect><rect x="130" y="98" width="11" height="11" rx="2" fill="#161b22" fill-opacity="1"><title>2025-05-30: 0</title></rect><rect x="130" y="112" width="11" height="11" rx="2" fill="#161b22" fill-opacity="1"><title>2025-05-31: 0</title></rect><rect x="144" y="28" width="11" height="11" rx="2" fill="#161b22" fill-opacity="1"><title>2025-06-01: 0</title></rect><rect x="144" y="42" width="11" height="11" rx="2" fill="#161b22" fill-opacity="1"><title>2025-06-02: 0</title></rect><rect x="144" y="56" width="11" height="11" rx="2" fill="#161b22" fill-opacity="1"><title>2025-06-03: 0</title></rect><rect x="144" y="70" width="11" height="11" rx="2" fill="#161b22" fill-opacity="1"><title>2025-06-04: 0</title></rect><rect x="144" y="84" width="11" height="11" rx="2" fill="#161b22" fill-opacity="1"><title>2025-06-05: 0</title></rect><rect x="144" y="98" width="11" height="11" rx="2" fill="#161b22" fill-opacity="1"><title>2025-06-06: 0</title></rect><rect x="144" y="112" width="11" height="11" rx="2" fill="#161b22" fill-opacity="1"><title>2025-06-07: 0</title></rect><rect x="158" y="28" width="11" height="11" rx="2" fill="#161b22" fill-opacity="1"><title>2025-06-08: 0</title></rect><rect x="158" y="42" width="11" height="11" rx="2" fill="#161b22" fill-opacity="1"><title>2025-06-09: 0</title></rect><rect x="158" y="56" width="11" height="11" rx="2" fill="#161b22" fill-opacity="1"><title>2025-06-10: 0</title></rect><rect x="158" y="70" width="11" height="11" rx="2" fill="#161b22" fill-opacity="1"><title>2025-06-11: 0</title></rect><rect x="158" y="84" width="11" height="11" rx="2" fill="#161b22" fill-opacity="1"><title>2025-06-12: 0</title></rect><rect x="158" y="98" width="11" height="11" rx="2" fill="#22d3ee" fill-opacity="0.25"><title>2025-06-13: 2</title></rect><rect x="158" y="112" width="11" height="11" rx="2" fill="#22d3ee" fill-opacity="0.25"><title>2025-06-14: 1</title></rect><rect x="172" y="28" width="11" height="11" rx="2" fill="#22d3ee" fill-opacity="0.7"><title>2025-06-15: 32</title></rect><rect x="172" y="42" width="11" height="11" rx="2" fill="#22d3ee" fill-opacity="0.25"><title>2025-06-16: 1</title></rect><rect x="172" y="56" width="11" height="11" rx="2" fill="#22d3ee" fill-opacity="0.25"><title>2025-06-17: 3</title></rect><rect x="172" y="70" width="11" height="11" rx="2" fill="#22d3ee" fill-opacity="0.25"><title>2025-06-18: 1</title></rect><rect x="172" y="84" width="11" height="11" rx="2" fill="#161b22" fill-opacity="1"><title>2025-06-19: 0</title></rect><rect x="172" y="98" width="11" height="11" rx="2" fill="#161b22" fill-opacity="1"><title>2025-06-20: 0</title></rect><rect x="172" y="112" width="11" height="11" rx="2" fill="#161b22" fill-opacity="1"><title>2025-06-21: 0</title></rect><rect x="186" y="28" width="11" height="11" rx="2" fill="#161b22" fill-opacity="1"><title>2025-06-22: 0</title></rect><rect x="186" y="42" width="11" height="11" rx="2" fill="#161b22" fill-opacity="1"><title>2025-06-23: 0</title></rect><rect x="186" y="56" width="11" height="11" rx="2" fill="#161b22" fill-opacity="1"><title>2025-06-24: 0</title></rect><rect x="186" y="70" width="11" height="11" rx="2" fill="#161b22" fill-opacity="1"><title>2025-06-25: 0</title></rect><rect x="186" y="84" width="11" height="11" rx="2" fill="#22d3ee" fill-opacity="0.25"><title>2025-06-26: 9</title></rect><rect x="186" y="98" width="11" height="11" rx="2" fill="#22d3ee" fill-opacity="1"><title>2025-06-27: 59</title></rect><rect x="186" y="112" width="11" height="11" rx="2" fill="#22d3ee" fill-opacity="0.25"><title>2025-06-28: 3</title></rect><rect x="200" y="28" width="11" height="11" rx="2" fill="#22d3ee" fill-opacity="0.25"><title>2025-06-29: 1</title></rect><rect x="200" y="42" width="11" height="11" rx="2" fill="#22d3ee" fill-opacity="0.25"><title>2025-06-30: 5</title></rect><rect x="200" y="56" width="11" height="11" rx="2" fill="#161b22" fill-opacity="1"><title>2025-07-01: 0</title></rect><rect x="200" y="70" width="11" height="11" rx="2" fill="#22d3ee" fill-opacity="0.25"><title>2025-07-02: 1</title></rect><rect x="200" y="84" width="11" height="11" rx="2" fill="#22d3ee" fill-opacity="0.25"><title>2025-07-03: 1</title></rect><rect x="200" y="98" width="11" height="11" rx="2" fill="#22d3ee" fill-opacity="0.25"><title>2025-07-04: 1</title></rect><rect x="200" y="112" width="11" height="11" rx="2" fill="#22d3ee" fill-opacity="0.25"><title>2025-07-05: 1</title></rect><rect x="214" y="28" width="11" height="11" rx="2" fill="#22d3ee" fill-opacity="0.25"><title>2025-07-06: 14</title></rect><rect x="214" y="42" width="11" height="11" rx="2" fill="#161b22" fill-opacity="1"><title>2025-07-07: 0</title></rect><rect x="214" y="56" width="11" height="11" rx="2" fill="#161b22" fill-opacity="1"><title>2025-07-08: 0</title></rect><rect x="214" y="70" width="11" height="11" rx="2" fill="#161b22" fill-opacity="1"><title>2025-07-09: 0</title></rect><rect x="214" y="84" width="11" height="11" rx="2" fill="#161b22" fill-opacity="1"><title>2025-07-10: 0</title></rect><rect x="214" y="98" width="11" height="11" rx="2" fill="#22d3ee" fill-opacity="0.25"><title>2025-07-11: 3</title></rect><rect x="214" y="112" width="11" height="11" rx="2" fill="#161b22" fill-opacity="1"><title>2025-07-12: 0</title></rect><rect x="228" y="28" width="11" height="11" rx="2" fill="#161b22" fill-opacity="1"><title>2025-07-13: 0</title></rect><rect x="228" y="42" width="11" height="11" rx="2" fill="#161b22" fill-opacity="1"><title>2025-07-14: 0</title></rect><rect x="228" y="56" width="11" height="11" rx="2" fill="#22d3ee" fill-opacity="0.25"><title>2025-07-15: 2</title></rect><rect x="228" y="70" width="11" height="11" rx="2" fill="#161b22" fill-opacity="1"><title>2025-07-16: 0</title></rect><rect x="228" y="84" width="11" height="11" rx="2" fill="#161b22" fill-opacity="1"><title>2025-07-17: 0</title></rect><rect x="228" y="98" width="11" height="11" rx="2" fill="#22d3ee" fill-opacity="0.25"><title>2025-07-18: 2</title></rect><rect x="228" y="112" width="11" height="11" rx="2" fill="#22d3ee" fill-opacity="0.25"><title>2025-07-19: 1</title></rect><rect x="242" y="28" width="11" height="11" rx="2" fill="#161b22" fill-opacity="1"><title>2025-07-20: 0</title></rect><rect x="242" y="42" width="11" height="11" rx="2" fill="#161b22" fill-opacity="1"><title>2025-07-21: 0</title></rect><rect x="242" y="56" width="11" height="11" rx="2" fill="#22d3ee" fill-opacity="0.25"><title>2025-07-22: 1</title></rect><rect x="242" y="70" width="11" height="11" rx="2" fill="#22d3ee" fill-opacity="0.25"><title>2025-07-23: 1</title></rect><rect x="242" y="84" width="11" height="11" rx="2" fill="#22d3ee" fill-opacity="0.25"><title>2025-07-24: 1</title></rect><rect x="242" y="98" width="11" height="11" rx="2" fill="#22d3ee" fill-opacity="0.25"><title>2025-07-25: 6</title></rect><rect x="242" y="112" width="11" height="11" rx="2" fill="#161b22" fill-opacity="1"><title>2025-07-26: 0</title></rect><rect x="256" y="28" width="11" height="11" rx="2" fill="#161b22" fill-opacity="1"><title>2025-07-27: 0</title></rect><rect x="256" y="42" width="11" height="11" rx="2" fill="#161b22" fill-opacity="1"><title>2025-07-28: 0</title></rect><rect x="256" y="56" width="11" height="11" rx="2" fill="#22d3ee" fill-opacity="0.25"><title>2025-07-29: 4</title></rect><rect x="256" y="70" width="11" height="11" rx="2" fill="#161b22" fill-opacity="1"><title>2025-07-30: 0</title></rect><rect x="256" y="84" width="11" height="11" rx="2" fill="#161b22" fill-opacity="1"><title>2025-07-31: 0</title></rect><rect x="256" y="98" width="11" height="11" rx="2" fill="#161b22" fill-opacity="1"><title>2025-08-01: 0</title></rect><rect x="256" y="112" width="11" height="11" rx="2" fill="#161b22" fill-opacity="1"><title>2025-08-02: 0</title></rect><rect x="270" y="28" width="11" height="11" rx="2" fill="#161b22" fill-opacity="1"><title>2025-08-03: 0</title></rect><rect x="270" y="42" width="11" height="11" rx="2" fill="#161b22" fill-opacity="1"><title>2025-08-04: 0</title></rect><rect x="270" y="56" width="11" height="11" rx="2" fill="#161b22" fill-opacity="1"><title>2025-08-05: 0</title></rect><rect x="270" y="70" width="11" height="11" rx="2" fill="#161b22" fill-opacity="1"><title>2025-08-06: 0</title></rect><rect x="270" y="84" width="11" height="11" rx="2" fill="#161b22" fill-opacity="1"><title>2025-08-07: 0</title></rect><rect x="270" y="98" width="11" height="11" rx="2" fill="#161b22" fill-opacity="1"><title>2025-08-08: 0</title></rect><rect x="270" y="112" width="11" height="11" rx="2" fill="#161b22" fill-opacity="1"><title>2025-08-09: 0</title></rect><rect x="284" y="28" width="11" height="11" rx="2" fill="#161b22" fill-opacity="1"><title>2025-08-10: 0</title></rect><rect x="284" y="42" width="11" height="11" rx="2" fill="#161b22" fill-opacity="1"><title>2025-08-11: 0</title></rect><rect x="284" y="56" width="11" height="11" rx="2" fill="#161b22" fill-opacity="1"><title>2025-08-12: 0</title></rect><rect x="284" y="70" width="11" height="11" rx="2" fill="#161b22" fill-opacity="1"><title>2025-08-13: 0</title></rect><rect x="284" y="84" width="11" height="11" rx="2" fill="#161b22" fill-opacity="1"><title>2025-08-14: 0</title></rect><rect x="284" y="98" width="11" height="11" rx="2" fill="#161b22" fill-opacity="1"><title>2025-08-15: 0</title></rect><rect x="284" y="112" width="11" height="11" rx="2" fill="#161b22" fill-opacity="1"><title>2025-08-16: 0</title></rect><rect x="298" y="28" width="11" height="11" rx="2" fill="#161b22" fill-opacity="1"><title>2025-08-17: 0</title></rect><rect x="298" y="42" width="11" height="11" rx="2" fill="#161b22" fill-opacity="1"><title>2025-08-18: 0</title></rect><rect x="298" y="56" width="11" height="11" rx="2" fill="#161b22" fill-opacity="1"><title>2025-08-19: 0</title></rect><rect x="298" y="70" width="11" height="11" rx="2" fill="#161b22" fill-opacity="1"><title>2025-08-20: 0</title></rect><rect x="298" y="84" width="11" height="11" rx="2" fill="#161b22" fill-opacity="1"><title>2025-08-21: 0</title></rect><rect x="298" y="98" width="11" height="11" rx="2" fill="#161b22" fill-opacity="1"><title>2025-08-22: 0</title></rect><rect x="298" y="112" width="11" height="11" rx="2" fill="#161b22" fill-opacity="1"><title>2025-08-23: 0</title></rect><rect x="312" y="28" width="11" height="11" rx="2" fill="#161b22" fill-opacity="1"><title>2025-08-24: 0</title></rect><rect x="312" y="42" width="11" height="11" rx="2" fill="#161b22" fill-opacity="1"><title>2025-08-25: 0</title></rect><rect x="312" y="56" width="11" height="11" rx="2" fill="#161b22" fill-opacity="1"><title>2025-08-26: 0</title></rect><rect x="312" y="70" width="11" height="11" rx="2" fill="#22d3ee" fill-opacity="0.25"><title>2025-08-27: 1</title></rect><rect x="312" y="84" width="11" height="11" rx="2" fill="#161b22" fill-opacity="1"><title>2025-08-28: 0</title></rect><rect x="312" y="98" width="11" height="11" rx="2" fill="#161b22" fill-opacity="1"><title>2025-08-29: 0</title></rect><rect x="312" y="112" width="11" height="11" rx="2" fill="#22d3ee" fill-opacity="0.25"><title>2025-08-30: 4</title></rect><rect x="326" y="28" width="11" height="11" rx="2" fill="#22d3ee" fill-opacity="0.25"><title>2025-08-31: 6</title></rect><rect x="326" y="42" width="11" height="11" rx="2" fill="#161b22" fill-opacity="1"><title>2025-09-01: 0</title></rect><rect x="326" y="56" width="11" height="11" rx="2" fill="#161b22" fill-opacity="1"><title>2025-09-02: 0</title></rect><rect x="326" y="70" width="11" height="11" rx="2" fill="#161b22" fill-opacity="1"><title>2025-09-03: 0</title></rect><rect x="326" y="84" width="11" height="11" rx="2" fill="#161b22" fill-opacity="1"><title>2025-09-04: 0</title></rect><rect x="326" y="98" width="11" height="11" rx="2" fill="#161b22" fill-opacity="1"><title>2025-09-05: 0</title></rect><rect x="326" y="112" width="11" height="11" rx="2" fill="#161b22" fill-opacity="1"><title>2025-09-06: 0</title></rect><rect x="340" y="28" width="11" height="11" rx="2" fill="#22d3ee" fill-opacity="0.25"><title>2025-09-07: 3</title></rect><rect x="340" y="42" width="11" height="11" rx="2" fill="#161b22" fill-opacity="1"><title>2025-09-08: 0</title></rect><rect x="340" y="56" width="11" height="11" rx="2" fill="#161b22" fill-opacity="1"><title>2025-09-09: 0</title></rect><rect x="340" y="70" width="11" height="11" rx="2" fill="#161b22" fill-opacity="1"><title>2025-09-10: 0</title></rect><rect x="340" y="84" width="11" height="11" rx="2" fill="#161b22" fill-opacity="1"><title>2025-09-11: 0</title></rect><rect x="340" y="98" width="11" height="11" rx="2" fill="#161b22" fill-opacity="1"><title>2025-09-12: 0</title></rect><rect x="340" y="112" width="11" height="11" rx="2" fill="#161b22" fill-opacity="1"><title>2025-09-13: 0</title></rect><rect x="354" y="28" width="11" height="11" rx="2" fill="#161b22" fill-opacity="1"><title>2025-09-14: 0</title></rect><rect x="354" y="42" width="11" height="11" rx="2" fill="#161b22" fill-opacity="1"><title>2025-09-15: 0</title></rect><rect x="354" y="56" width="11" height="11" rx="2" fill="#161b22" fill-opacity="1"><title>2025-09-16: 0</title></rect><rect x="354" y="70" width="11" height="11" rx="2" fill="#161b22" fill-opacity="1"><title>2025-09-17: 0</title></rect><rect x="354" y="84" width="11" height="11" rx="2" fill="#161b22" fill-opacity="1"><title>2025-09-18: 0</title></rect><rect x="354" y="98" width="11" height="11" rx="2" fill="#161b22" fill-opacity="1"><title>2025-09-19: 0</title></rect><rect x="354" y="112" width="11" height="11" rx="2" fill="#161b22" fill-opacity="1"><title>2025-09-20: 0</title></rect><rect x="368" y="28" width="11" height="11" rx="2" fill="#22d3ee" fill-opacity="0.25"><title>2025-09-21: 13</title></rect><rect x="368" y="42" width="11" height="11" rx="2" fill="#22d3ee" fill-opacity="0.25"><title>2025-09-22: 9</title></rect><rect x="368" y="56" width="11" height="11" rx="2" fill="#161b22" fill-opacity="1"><title>2025-09-23: 0</title></rect><rect x="368" y="70" width="11" height="11" rx="2" fill="#161b22" fill-opacity="1"><title>2025-09-24: 0</title></rect><rect x="368" y="84" width="11" height="11" rx="2" fill="#161b22" fill-opacity="1"><title>2025-09-25: 0</title></rect><rect x="368" y="98" width="11" height="11" rx="2" fill="#161b22" fill-opacity="1"><title>2025-09-26: 0</title></rect><rect x="368" y="112" width="11" height="11" rx="2" fill="#161b22" fill-opacity="1"><title>2025-09-27: 0</title></rect><rect x="382" y="28" width="11" height="11" rx="2" fill="#161b22" fill-opacity="1"><title>2025-09-28: 0</title></rect><rect x="382" y="42" width="11" height="11" rx="2" fill="#161b22" fill-opacity="1"><title>2025-09-29: 0</title></rect><rect x="382" y="56" width="11" height="11" rx="2" fill="#161b22" fill-opacity="1"><title>2025-09-30: 0</title></rect><rect x="382" y="70" width="11" height="11" rx="2" fill="#161b22" fill-opacity="1"><title>2025-10-01: 0</title></rect><rect x="382" y="84" width="11" height="11" rx="2" fill="#161b22" fill-opacity="1"><title>2025-10-02: 0</title></rect><rect x="382" y="98" width="11" height="11" rx="2" fill="#161b22" fill-opacity="1"><title>2025-10-03: 0</title></rect><rect x="382" y="112" width="11" height="11" rx="2" fill="#161b22" fill-opacity="1"><title>2025-10-04: 0</title></rect><rect x="396" y="28" width="11" height="11" rx="2" fill="#161b22" fill-opacity="1"><title>2025-10-05: 0</title></rect><rect x="396" y="42" width="11" height="11" rx="2" fill="#161b22" fill-opacity="1"><title>2025-10-06: 0</title></rect><rect x="396" y="56" width="11" height="11" rx="2" fill="#161b22" fill-opacity="1"><title>2025-10-07: 0</title></rect><rect x="396" y="70" width="11" height="11" rx="2" fill="#161b22" fill-opacity="1"><title>2025-10-08: 0</title></rect><rect x="396" y="84" width="11" height="11" rx="2" fill="#161b22" fill-opacity="1"><title>2025-10-09: 0</title></rect><rect x="396" y="98" width="11" height="11" rx="2" fill="#161b22" fill-opacity="1"><title>2025-10-10: 0</title></rect><rect x="396" y="112" width="11" height="11" rx="2" fill="#161b22" fill-opacity="1"><title>2025-10-11: 0</title></rect><rect x="410" y="28" width="11" height="11" rx="2" fill="#161b22" fill-opacity="1"><title>2025-10-12: 0</title></rect><rect x="410" y="42" width="11" height="11" rx="2" fill="#161b22" fill-opacity="1"><title>2025-10-13: 0</title></rect><rect x="410" y="56" width="11" height="11" rx="2" fill="#161b22" fill-opacity="1"><title>2025-10-14: 0</title></rect><rect x="410" y="70" width="11" height="11" rx="2" fill="#22d3ee" fill-opacity="0.25"><title>2025-10-15: 1</title></rect><rect x="410" y="84" width="11" height="11" rx="2" fill="#161b22" fill-opacity="1"><title>2025-10-16: 0</title></rect><rect x="410" y="98" width="11" height="11" rx="2" fill="#161b22" fill-opacity="1"><title>2025-10-17: 0</title></rect><rect x="410" y="112" width="11" height="11" rx="2" fill="#22d3ee" fill-opacity="0.25"><title>2025-10-18: 2</title></rect><rect x="424" y="28" width="11" height="11" rx="2" fill="#161b22" fill-opacity="1"><title>2025-10-19: 0</title></rect><rect x="424" y="42" width="11" height="11" rx="2" fill="#161b22" fill-opacity="1"><title>2025-10-20: 0</title></rect><rect x="424" y="56" width="11" height="11" rx="2" fill="#161b22" fill-opacity="1"><title>2025-10-21: 0</title></rect><rect x="424" y="70" width="11" height="11" rx="2" fill="#161b22" fill-opacity="1"><title>2025-10-22: 0</title></rect><rect x="424" y="84" width="11" height="11" rx="2" fill="#161b22" fill-opacity="1"><title>2025-10-23: 0</title></rect><rect x="424" y="98" width="11" height="11" rx="2" fill="#161b22" fill-opacity="1"><title>2025-10-24: 0</title></rect><rect x="424" y="112" width="11" height="11" rx="2" fill="#161b22" fill-opacity="1"><title>2025-10-25: 0</title></rect><rect x="438" y="28" width="11" height="11" rx="2" fill="#161b22" fill-opacity="1"><title>2025-10-26: 0</title></rect><rect x="438" y="42" width="11" height="11" rx="2" fill="#161b22" fill-opacity="1"><title>2025-10-27: 0</title></rect><rect x="438" y="56" width="11" height="11" rx="2" fill="#161b22" fill-opacity="1"><title>2025-10-28: 0</title></rect><rect x="438" y="70" width="11" height="11" rx="2" fill="#161b22" fill-opacity="1"><title>2025-10-29: 0</title></rect><rect x="438" y="84" width="11" height="11" rx="2" fill="#161b22" fill-opacity="1"><title>2025-10-30: 0</title></rect><rect x="438" y="98" width="11" height="11" rx="2" fill="#161b22" fill-opacity="1"><title>2025-10-31: 0</title></rect><rect x="438" y="112" width="11" height="11" rx="2" fill="#22d3ee" fill-opacity="0.25"><title>2025-11-01: 2</title></rect><rect x="452" y="28" width="11" height="11" rx="2" fill="#22d3ee" fill-opacity="0.25"><title>2025-11-02: 3</title></rect><rect x="452" y="42" width="11" height="11" rx="2" fill="#161b22" fill-opacity="1"><title>2025-11-03: 0</title></rect><rect x="452" y="56" width="11" height="11" rx="2" fill="#161b22" fill-opacity="1"><title>2025-11-04: 0</title></rect><rect x="452" y="70" width="11" height="11" rx="2" fill="#22d3ee" fill-opacity="0.25"><title>2025-11-05: 9</title></rect><rect x="452" y="84" width="11" height="11" rx="2" fill="#161b22" fill-opacity="1"><title>2025-11-06: 0</title></rect><rect x="452" y="98" width="11" height="11" rx="2" fill="#161b22" fill-opacity="1"><title>2025-11-07: 0</title></rect><rect x="452" y="112" width="11" height="11" rx="2" fill="#161b22" fill-opacity="1"><title>2025-11-08: 0</title></rect><rect x="466" y="28" width="11" height="11" rx="2" fill="#161b22" fill-opacity="1"><title>2025-11-09: 0</title></rect><rect x="466" y="42" width="11" height="11" rx="2" fill="#161b22" fill-opacity="1"><title>2025-11-10: 0</title></rect><rect x="466" y="56" width="11" height="11" rx="2" fill="#161b22" fill-opacity="1"><title>2025-11-11: 0</title></rect><rect x="466" y="70" width="11" height="11" rx="2" fill="#22d3ee" fill-opacity="0.45"><title>2025-11-12: 16</title></rect><rect x="466" y="84" width="11" height="11" rx="2" fill="#22d3ee" fill-opacity="0.45"><title>2025-11-13: 18</title></rect><rect x="466" y="98" width="11" height="11" rx="2" fill="#161b22" fill-opacity="1"><title>2025-11-14: 0</title></rect><rect x="466" y="112" width="11" height="11" rx="2" fill="#161b22" fill-opacity="1"><title>2025-11-15: 0</title></rect><rect x="480" y="28" width="11" height="11" rx="2" fill="#161b22" fill-opacity="1"><title>2025-11-16: 0</title></rect><rect x="480" y="42" width="11" height="11" rx="2" fill="#161b22" fill-opacity="1"><title>2025-11-17: 0</title></rect><rect x="480" y="56" width="11" height="11" rx="2" fill="#161b22" fill-opacity="1"><title>2025-11-18: 0</title></rect><rect x="480" y="70" width="11" height="11" rx="2" fill="#22d3ee" fill-opacity="0.25"><title>2025-11-19: 1</title></rect><rect x="480" y="84" width="11" height="11" rx="2" fill="#161b22" fill-opacity="1"><title>2025-11-20: 0</title></rect><rect x="480" y="98" width="11" height="11" rx="2" fill="#161b22" fill-opacity="1"><title>2025-11-21: 0</title></rect><rect x="480" y="112" width="11" height="11" rx="2" fill="#161b22" fill-opacity="1"><title>2025-11-22: 0</title></rect><rect x="494" y="28" width="11" height="11" rx="2" fill="#161b22" fill-opacity="1"><title>2025-11-23: 0</title></rect><rect x="494" y="42" width="11" height="11" rx="2" fill="#161b22" fill-opacity="1"><title>2025-11-24: 0</title></rect><rect x="494" y="56" width="11" height="11" rx="2" fill="#161b22" fill-opacity="1"><title>2025-11-25: 0</title></rect><rect x="494" y="70" width="11" height="11" rx="2" fill="#161b22" fill-opacity="1"><title>2025-11-26: 0</title></rect><rect x="494" y="84" width="11" height="11" rx="2" fill="#161b22" fill-opacity="1"><title>2025-11-27: 0</title></rect><rect x="494" y="98" width="11" height="11" rx="2" fill="#161b22" fill-opacity="1"><title>2025-11-28: 0</title></rect><rect x="494" y="112" width="11" height="11" rx="2" fill="#161b22" fill-opacity="1"><title>2025-11-29: 0</title></rect><rect x="508" y="28" width="11" height="11" rx="2" fill="#161b22" fill-opacity="1"><title>2025-11-30: 0</title></rect><rect x="508" y="42" width="11" height="11" rx="2" fill="#161b22" fill-opacity="1"><title>2025-12-01: 0</title></rect><rect x="508" y="56" width="11" height="11" rx="2" fill="#161b22" fill-opacity="1"><title>2025-12-02: 0</title></rect><rect x="508" y="70" width="11" height="11" rx="2" fill="#161b22" fill-opacity="1"><title>2025-12-03: 0</title></rect><rect x="508" y="84" width="11" height="11" rx="2" fill="#161b22" fill-opacity="1"><title>2025-12-04: 0</title></rect><rect x="508" y="98" width="11" height="11" rx="2" fill="#161b22" fill-opacity="1"><title>2025-12-05: 0</title></rect><rect x="508" y="112" width="11" height="11" rx="2" fill="#161b22" fill-opacity="1"><title>2025-12-06: 0</title></rect><rect x="522" y="28" width="11" height="11" rx="2" fill="#161b22" fill-opacity="1"><title>2025-12-07: 0</title></rect><rect x="522" y="42" width="11" height="11" rx="2" fill="#161b22" fill-opacity="1"><title>2025-12-08: 0</title></rect><rect x="522" y="56" width="11" height="11" rx="2" fill="#161b22" fill-opacity="1"><title>2025-12-09: 0</title></rect><rect x="522" y="70" width="11" height="11" rx="2" fill="#161b22" fill-opacity="1"><title>2025-12-10: 0</title></rect><rect x="522" y="84" width="11" height="11" rx="2" fill="#161b22" fill-opacity="1"><title>2025-12-11: 0</title></rect><rect x="522" y="98" width="11" height="11" rx="2" fill="#161b22" fill-opacity="1"><title>2025-12-12: 0</title></rect><rect x="522" y="112" width="11" height="11" rx="2" fill="#161b22" fill-opacity="1"><title>2025-12-13: 0</title></rect><rect x="536" y="28" width="11" height="11" rx="2" fill="#22d3ee" fill-opacity="0.25"><title>2025-12-14: 2</title></rect><rect x="536" y="42" width="11" height="11" rx="2" fill="#161b22" fill-opacity="1"><title>2025-12-15: 0</title></rect><rect x="536" y="56" width="11" height="11" rx="2" fill="#161b22" fill-opacity="1"><title>2025-12-16: 0</title></rect><rect x="536" y="70" width="11" height="11" rx="2" fill="#161b22" fill-opacity="1"><title>2025-12-17: 0</title></rect><rect x="536" y="84" width="11" height="11" rx="2" fill="#22d3ee" fill-opacity="1"><title>2025-12-18: 45</title></rect><rect x="536" y="98" width="11" height="11" rx="2" fill="#22d3ee" fill-opacity="0.25"><title>2025-12-19: 4</title></rect><rect x="536" y="112" width="11" height="11" rx="2" fill="#22d3ee" fill-opacity="0.25"><title>2025-12-20: 5</title></rect><rect x="550" y="28" width="11" height="11" rx="2" fill="#22d3ee" fill-opacity="0.25"><title>2025-12-21: 1</title></rect><rect x="550" y="42" width="11" height="11" rx="2" fill="#22d3ee" fill-opacity="0.25"><title>2025-12-22: 12</title></rect><rect x="550" y="56" width="11" height="11" rx="2" fill="#22d3ee" fill-opacity="0.25"><title>2025-12-23: 3</title></rect><rect x="550" y="70" width="11" height="11" rx="2" fill="#22d3ee" fill-opacity="0.25"><title>2025-12-24: 7</title></rect><rect x="550" y="84" width="11" height="11" rx="2" fill="#22d3ee" fill-opacity="0.25"><title>2025-12-25: 3</title></rect><rect x="550" y="98" width="11" height="11" rx="2" fill="#22d3ee" fill-opacity="0.25"><title>2025-12-26: 1</title></rect><rect x="550" y="112" width="11" height="11" rx="2" fill="#22d3ee" fill-opacity="0.25"><title>2025-12-27: 10</title></rect><rect x="564" y="28" width="11" height="11" rx="2" fill="#161b22" fill-opacity="1"><title>2025-12-28: 0</title></rect><rect x="564" y="42" width="11" height="11" rx="2" fill="#22d3ee" fill-opacity="0.25"><title>2025-12-29: 1</title></rect><rect x="564" y="56" width="11" height="11" rx="2" fill="#22d3ee" fill-opacity="0.45"><title>2025-12-30: 28</title></rect><rect x="564" y="70" width="11" height="11" rx="2" fill="#22d3ee" fill-opacity="0.25"><title>2025-12-31: 1</title></rect><rect x="564" y="84" width="11" height="11" rx="2" fill="#22d3ee" fill-opacity="0.25"><title>2026-01-01: 7</title></rect><rect x="564" y="98" width="11" height="11" rx="2" fill="#22d3ee" fill-opacity="0.25"><title>2026-01-02: 3</title></rect><rect x="564" y="112" width="11" height="11" rx="2" fill="#22d3ee" fill-opacity="0.25"><title>2026-01-03: 6</title></rect><rect x="578" y="28" width="11" height="11" rx="2" fill="#22d3ee" fill-opacity="0.25"><title>2026-01-04: 1</title></rect><rect x="578" y="42" width="11" height="11" rx="2" fill="#22d3ee" fill-opacity="0.25"><title>2026-01-05: 3</title></rect><rect x="578" y="56" width="11" height="11" rx="2" fill="#22d3ee" fill-opacity="0.25"><title>2026-01-06: 1</title></rect><rect x="578" y="70" width="11" height="11" rx="2" fill="#22d3ee" fill-opacity="0.25"><title>2026-01-07: 1</title></rect><rect x="578" y="84" width="11" height="11" rx="2" fill="#22d3ee" fill-opacity="0.25"><title>2026-01-08: 1</title></rect><rect x="578" y="98" width="11" height="11" rx="2" fill="#22d3ee" fill-opacity="0.25"><title>2026-01-09: 1</title></rect><rect x="578" y="112" width="11" height="11" rx="2" fill="#22d3ee" fill-opacity="0.25"><title>2026-01-10: 1</title></rect><rect x="592" y="28" width="11" height="11" rx="2" fill="#22d3ee" fill-opacity="0.25"><title>2026-01-11: 1</title></rect><rect x="592" y="42" width="11" height="11" rx="2" fill="#22d3ee" fill-opacity="0.25"><title>2026-01-12: 1</title></rect><rect x="592" y="56" width="11" height="11" rx="2" fill="#22d3ee" fill-opacity="0.25"><title>2026-01-13: 1</title></rect><rect x="592" y="70" width="11" height="11" rx="2" fill="#22d3ee" fill-opacity="0.25"><title>2026-01-14: 1</title></rect><rect x="592" y="84" width="11" height="11" rx="2" fill="#22d3ee" fill-opacity="0.25"><title>2026-01-15: 1</title></rect><rect x="592" y="98" width="11" height="11" rx="2" fill="#22d3ee" fill-opacity="0.25"><title>2026-01-16: 1</title></rect><rect x="592" y="112" width="11" height="11" rx="2" fill="#22d3ee" fill-opacity="0.7"><title>2026-01-17: 32</title></rect><rect x="606" y="28" width="11" height="11" rx="2" fill="#22d3ee" fill-opacity="1"><title>2026-01-18: 45</title></rect><rect x="606" y="42" width="11" height="11" rx="2" fill="#22d3ee" fill-opacity="0.25"><title>2026-01-19: 2</title></rect><rect x="606" y="56" width="11" height="11" rx="2" fill="#22d3ee" fill-opacity="0.25"><title>2026-01-20: 1</title></rect><rect x="606" y="70" width="11" height="11" rx="2" fill="#22d3ee" fill-opacity="0.25"><title>2026-01-21: 1</title></rect><rect x="606" y="84" width="11" height="11" rx="2" fill="#22d3ee" fill-opacity="0.25"><title>2026-01-22: 1</title></rect><rect x="606" y="98" width="11" height="11" rx="2" fill="#22d3ee" fill-opacity="0.25"><title>2026-01-23: 2</title></rect><rect x="606" y="112" width="11" height="11" rx="2" fill="#22d3ee" fill-opacity="0.25"><title>2026-01-24: 1</title></rect><rect x="620" y="28" width="11" height="11" rx="2" fill="#22d3ee" fill-opacity="0.25"><title>2026-01-25: 1</title></rect><rect x="620" y="42" width="11" height="11" rx="2" fill="#22d3ee" fill-opacity="0.25"><title>2026-01-26: 1</title></rect><rect x="620" y="56" width="11" height="11" rx="2" fill="#22d3ee" fill-opacity="0.25"><title>2026-01-27: 1</title></rect><rect x="620" y="70" width="11" height="11" rx="2" fill="#22d3ee" fill-opacity="0.25"><title>2026-01-28: 1</title></rect><rect x="620" y="84" width="11" height="11" rx="2" fill="#22d3ee" fill-opacity="0.25"><title>2026-01-29: 1</title></rect><rect x="620" y="98" width="11" height="11" rx="2" fill="#22d3ee" fill-opacity="0.25"><title>2026-01-30: 3</title></rect><rect x="620" y="112" width="11" height="11" rx="2" fill="#22d3ee" fill-opacity="0.25"><title>2026-01-31: 3</title></rect><rect x="634" y="28" width="11" height="11" rx="2" fill="#22d3ee" fill-opacity="0.25"><title>2026-02-01: 3</title></rect><rect x="634" y="42" width="11" height="11" rx="2" fill="#22d3ee" fill-opacity="0.25"><title>2026-02-02: 4</title></rect><rect x="634" y="56" width="11" height="11" rx="2" fill="#22d3ee" fill-opacity="0.25"><title>2026-02-03: 7</title></rect><rect x="634" y="70" width="11" height="11" rx="2" fill="#22d3ee" fill-opacity="0.25"><title>2026-02-04: 1</title></rect><rect x="634" y="84" width="11" height="11" rx="2" fill="#22d3ee" fill-opacity="0.25"><title>2026-02-05: 1</title></rect><rect x="634" y="98" width="11" height="11" rx="2" fill="#22d3ee" fill-opacity="0.25"><title>2026-02-06: 1</title></rect><rect x="634" y="112" width="11" height="11" rx="2" fill="#22d3ee" fill-opacity="0.25"><title>2026-02-07: 7</title></rect><rect x="648" y="28" width="11" height="11" rx="2" fill="#22d3ee" fill-opacity="0.25"><title>2026-02-08: 1</title></rect><rect x="648" y="42" width="11" height="11" rx="2" fill="#22d3ee" fill-opacity="0.25"><title>2026-02-09: 1</title></rect><rect x="648" y="56" width="11" height="11" rx="2" fill="#22d3ee" fill-opacity="0.25"><title>2026-02-10: 2</title></rect><rect x="648" y="70" width="11" height="11" rx="2" fill="#22d3ee" fill-opacity="0.25"><title>2026-02-11: 1</title></rect><rect x="648" y="84" width="11" height="11" rx="2" fill="#22d3ee" fill-opacity="0.25"><title>2026-02-12: 1</title></rect><rect x="648" y="98" width="11" height="11" rx="2" fill="#22d3ee" fill-opacity="0.25"><title>2026-02-13: 3</title></rect><rect x="648" y="112" width="11" height="11" rx="2" fill="#22d3ee" fill-opacity="0.25"><title>2026-02-14: 3</title></rect><rect x="662" y="28" width="11" height="11" rx="2" fill="#22d3ee" fill-opacity="0.45"><title>2026-02-15: 18</title></rect><rect x="662" y="42" width="11" height="11" rx="2" fill="#22d3ee" fill-opacity="0.25"><title>2026-02-16: 13</title></rect><rect x="662" y="56" width="11" height="11" rx="2" fill="#22d3ee" fill-opacity="0.25"><title>2026-02-17: 1</title></rect><rect x="662" y="70" width="11" height="11" rx="2" fill="#22d3ee" fill-opacity="0.25"><title>2026-02-18: 2</title></rect><rect x="662" y="84" width="11" height="11" rx="2" fill="#22d3ee" fill-opacity="0.25"><title>2026-02-19: 2</title></rect><rect x="662" y="98" width="11" height="11" rx="2" fill="#22d3ee" fill-opacity="0.25"><title>2026-02-20: 1</title></rect><rect x="662" y="112" width="11" height="11" rx="2" fill="#22d3ee" fill-opacity="0.25"><title>2026-02-21: 2</title></rect><rect x="676" y="28" width="11" height="11" rx="2" fill="#22d3ee" fill-opacity="0.25"><title>2026-02-22: 1</title></rect><rect x="676" y="42" width="11" height="11" rx="2" fill="#22d3ee" fill-opacity="0.25"><title>2026-02-23: 1</title></rect><rect x="676" y="56" width="11" height="11" rx="2" fill="#22d3ee" fill-opacity="0.25"><title>2026-02-24: 3</title></rect><rect x="676" y="70" width="11" height="11" rx="2" fill="#22d3ee" fill-opacity="0.25"><title>2026-02-25: 1</title></rect><rect x="676" y="84" width="11" height="11" rx="2" fill="#22d3ee" fill-opacity="0.25"><title>2026-02-26: 1</title></rect><rect x="676" y="98" width="11" height="11" rx="2" fill="#22d3ee" fill-opacity="0.25"><title>2026-02-27: 1</title></rect><rect x="676" y="112" width="11" height="11" rx="2" fill="#22d3ee" fill-opacity="0.25"><title>2026-02-28: 2</title></rect><rect x="690" y="28" width="11" height="11" rx="2" fill="#22d3ee" fill-opacity="0.25"><title>2026-03-01: 2</title></rect><rect x="690" y="42" width="11" height="11" rx="2" fill="#22d3ee" fill-opacity="0.25"><title>2026-03-02: 1</title></rect><rect x="690" y="56" width="11" height="11" rx="2" fill="#22d3ee" fill-opacity="0.25"><title>2026-03-03: 2</title></rect><rect x="690" y="70" width="11" height="11" rx="2" fill="#22d3ee" fill-opacity="0.25"><title>2026-03-04: 1</title></rect><rect x="690" y="84" width="11" height="11" rx="2" fill="#22d3ee" fill-opacity="0.25"><title>2026-03-05: 1</title></rect><rect x="690" y="98" width="11" height="11" rx="2" fill="#22d3ee" fill-opacity="0.25"><title>2026-03-06: 1</title></rect><rect x="690" y="112" width="11" height="11" rx="2" fill="#22d3ee" fill-opacity="0.25"><title>2026-03-07: 1</title></rect><rect x="704" y="28" width="11" height="11" rx="2" fill="#22d3ee" fill-opacity="0.25"><title>2026-03-08: 8</title></rect><rect x="704" y="42" width="11" height="11" rx="2" fill="#22d3ee" fill-opacity="0.25"><title>2026-03-09: 1</title></rect><rect x="704" y="56" width="11" height="11" rx="2" fill="#22d3ee" fill-opacity="0.25"><title>2026-03-10: 1</title></rect><rect x="704" y="70" width="11" height="11" rx="2" fill="#22d3ee" fill-opacity="0.25"><title>2026-03-11: 1</title></rect><rect x="704" y="84" width="11" height="11" rx="2" fill="#22d3ee" fill-opacity="0.25"><title>2026-03-12: 1</title></rect><rect x="704" y="98" width="11" height="11" rx="2" fill="#22d3ee" fill-opacity="0.25"><title>2026-03-13: 1</title></rect><rect x="704" y="112" width="11" height="11" rx="2" fill="#22d3ee" fill-opacity="0.25"><title>2026-03-14: 1</title></rect><rect x="718" y="28" width="11" height="11" rx="2" fill="#22d3ee" fill-opacity="0.45"><title>2026-03-15: 23</title></rect><rect x="718" y="42" width="11" height="11" rx="2" fill="#22d3ee" fill-opacity="0.45"><title>2026-03-16: 19</title></rect><rect x="718" y="56" width="11" height="11" rx="2" fill="#22d3ee" fill-opacity="0.25"><title>2026-03-17: 1</title></rect><rect x="718" y="70" width="11" height="11" rx="2" fill="#22d3ee" fill-opacity="0.25"><title>2026-03-18: 1</title></rect><rect x="718" y="84" width="11" height="11" rx="2" fill="#22d3ee" fill-opacity="0.25"><title>2026-03-19: 2</title></rect><rect x="718" y="98" width="11" height="11" rx="2" fill="#22d3ee" fill-opacity="0.25"><title>2026-03-20: 2</title></rect><rect x="718" y="112" width="11" height="11" rx="2" fill="#22d3ee" fill-opacity="0.25"><title>2026-03-21: 1</title></rect><rect x="732" y="28" width="11" height="11" rx="2" fill="#22d3ee" fill-opacity="0.25"><title>2026-03-22: 1</title></rect><rect x="732" y="42" width="11" height="11" rx="2" fill="#22d3ee" fill-opacity="0.25"><title>2026-03-23: 1</title></rect><rect x="732" y="56" width="11" height="11" rx="2" fill="#22d3ee" fill-opacity="0.25"><title>2026-03-24: 2</title></rect><rect x="732" y="70" width="11" height="11" rx="2" fill="#22d3ee" fill-opacity="0.25"><title>2026-03-25: 2</title></rect><rect x="732" y="84" width="11" height="11" rx="2" fill="#22d3ee" fill-opacity="0.25"><title>2026-03-26: 1</title></rect><rect x="732" y="98" width="11" height="11" rx="2" fill="#22d3ee" fill-opacity="0.25"><title>2026-03-27: 2</title></rect><rect x="732" y="112" width="11" height="11" rx="2" fill="#22d3ee" fill-opacity="0.25"><title>2026-03-28: 1</title></rect><rect x="746" y="28" width="11" height="11" rx="2" fill="#22d3ee" fill-opacity="0.25"><title>2026-03-29: 1</title></rect><rect x="746" y="42" width="11" height="11" rx="2" fill="#22d3ee" fill-opacity="0.25"><title>2026-03-30: 9</title></rect><rect x="746" y="56" width="11" height="11" rx="2" fill="#161b22" fill-opacity="1"><title>2026-03-31: 0</title></rect><rect x="746" y="70" width="11" height="11" rx="2" fill="#161b22" fill-opacity="1"><title>2026-04-01: 0</title></rect><rect x="746" y="84" width="11" height="11" rx="2" fill="#161b22" fill-opacity="1"><title>2026-04-02: 0</title></rect><rect x="746" y="98" width="11" height="11" rx="2" fill="#161b22" fill-opacity="1"><title>2026-04-03: 0</title></rect><rect x="746" y="112" width="11" height="11" rx="2" fill="#161b22" fill-opacity="1"><title>2026-04-04: 0</title></rect><rect x="760" y="28" width="11" height="11" rx="2" fill="#161b22" fill-opacity="1"><title>2026-04-05: 0</title></rect><rect x="760" y="42" width="11" height="11" rx="2" fill="#22d3ee" fill-opacity="0.25"><title>2026-04-06: 1</title></rect><rect x="760" y="56" width="11" height="11" rx="2" fill="#161b22" fill-opacity="1"><title>2026-04-07: 0</title></rect><rect x="760" y="70" width="11" height="11" rx="2" fill="#161b22" fill-opacity="1"><title>2026-04-08: 0</title></rect><rect x="760" y="84" width="11" height="11" rx="2" fill="#22d3ee" fill-opacity="0.25"><title>2026-04-09: 3</title></rect><rect x="760" y="98" width="11" height="11" rx="2" fill="#161b22" fill-opacity="1"><title>2026-04-10: 0</title></rect><rect x="760" y="112" width="11" height="11" rx="2" fill="#161b22" fill-opacity="1"><title>2026-04-11: 0</title></rect><rect x="774" y="28" width="11" height="11" rx="2" fill="#22d3ee" fill-opacity="0.25"><title>2026-04-12: 5</title></rect><rect x="774" y="42" width="11" height="11" rx="2" fill="#22d3ee" fill-opacity="0.25"><title>2026-04-13: 5</title></rect><rect x="774" y="56" width="11" height="11" rx="2" fill="#22d3ee" fill-opacity="0.45"><title>2026-04-14: 15</title></rect><rect x="774" y="70" width="11" height="11" rx="2" fill="#22d3ee" fill-opacity="0.25"><title>2026-04-15: 12</title></rect><rect x="774" y="84" width="11" height="11" rx="2" fill="#22d3ee" fill-opacity="0.25"><title>2026-04-16: 5</title></rect>

  <!-- footer -->
  <text x="32" y="149" font-family="'SF Mono','Fira Code',monospace" font-size="9" fill="#30363d">773 contributions in the last year  ·  43.4% consistency</text>

  <!-- legend -->
  <text x="663" y="150" font-family="'SF Mono','Fira Code',monospace" font-size="9" fill="#30363d">less</text>
  <g transform="translate(689, 139)"><rect x="693" y="0" width="11" height="11" rx="2" fill="#161b22" fill-opacity="1"/><rect x="706" y="0" width="11" height="11" rx="2" fill="#22d3ee" fill-opacity="0.25"/><rect x="719" y="0" width="11" height="11" rx="2" fill="#22d3ee" fill-opacity="0.45"/><rect x="732" y="0" width="11" height="11" rx="2" fill="#22d3ee" fill-opacity="0.7"/><rect x="745" y="0" width="11" height="11" rx="2" fill="#22d3ee" fill-opacity="1"/></g>
  <text x="762" y="150" font-family="'SF Mono','Fira Code',monospace" font-size="9" fill="#30363d">more</text>

</svg>