<svg width="880" height="288" viewBox="0 0 880 288" xmlns="http://www.w3.org/2000/svg">
  <defs>
    <linearGradient id="areaGrad" x1="0" y1="0" x2="0" y2="1">
      <stop offset="0%" stop-color="#22d3ee" stop-opacity="0.15"/>
      <stop offset="100%" stop-color="#22d3ee" stop-opacity="0.01"/>
    </linearGradient>
    <clipPath id="chartClip">
      <rect x="36" y="28" width="820" height="220"/>
    </clipPath>
  </defs>

  <!-- card -->
  <rect width="880" height="288" rx="14" fill="#010409"/>
  <rect width="880" height="288" rx="14" fill="none" stroke="#21262d" stroke-width="1"/>

  <!-- top accent -->
  <rect x="24" y="0" width="80" height="2" rx="1" fill="#22d3ee" opacity="0.8"/>

  <!-- header -->
  <text x="24" y="20" font-family="'SF Mono','Fira Code',monospace" font-size="9" letter-spacing="2" fill="#30363d">DAILY CONTRIBUTIONS  ·  LAST 365 DAYS</text>

  <!-- gridlines + y labels -->
  
    <line x1="36" y1="193.0" x2="856" y2="193.0" stroke="#161b22" stroke-width="1"/>
    <text x="30" y="197" text-anchor="end" font-family="'SF Mono','Fira Code',monospace" font-size="8" fill="#30363d">15</text>
    <line x1="36" y1="138.0" x2="856" y2="138.0" stroke="#161b22" stroke-width="1"/>
    <text x="30" y="142" text-anchor="end" font-family="'SF Mono','Fira Code',monospace" font-size="8" fill="#30363d">30</text>
    <line x1="36" y1="83.0" x2="856" y2="83.0" stroke="#161b22" stroke-width="1"/>
    <text x="30" y="87" text-anchor="end" font-family="'SF Mono','Fira Code',monospace" font-size="8" fill="#30363d">44</text>
    <line x1="36" y1="28.0" x2="856" y2="28.0" stroke="#161b22" stroke-width="1"/>
    <text x="30" y="32" text-anchor="end" font-family="'SF Mono','Fira Code',monospace" font-size="8" fill="#30363d">59</text>

  <!-- area fill -->
  <path d="M 36.0,248.0 L 36.0,248.0 L 38.3,248.0 L 40.5,248.0 L 42.8,229.4 L 45.0,244.3 L 47.3,248.0 L 49.5,248.0 L 51.8,248.0 L 54.0,248.0 L 56.3,248.0 L 58.5,248.0 L 60.8,236.8 L 63.0,248.0 L 65.3,244.3 L 67.5,188.3 L 69.8,248.0 L 72.0,248.0 L 74.3,248.0 L 76.5,248.0 L 78.8,248.0 L 81.1,229.4 L 83.3,248.0 L 85.6,248.0 L 87.8,248.0 L 90.1,248.0 L 92.3,233.1 L 94.6,248.0 L 96.8,225.6 L 99.1,248.0 L 101.3,225.6 L 103.6,248.0 L 105.8,244.3 L 108.1,248.0 L 110.3,248.0 L 112.6,248.0 L 114.8,248.0 L 117.1,248.0 L 119.4,248.0 L 121.6,248.0 L 123.9,248.0 L 126.1,248.0 L 128.4,248.0 L 130.6,248.0 L 132.9,248.0 L 135.1,248.0 L 137.4,248.0 L 139.6,248.0 L 141.9,248.0 L 144.1,248.0 L 146.4,248.0 L 148.6,248.0 L 150.9,248.0 L 153.1,248.0 L 155.4,248.0 L 157.6,248.0 L 159.9,248.0 L 162.2,248.0 L 164.4,240.5 L 166.7,244.3 L 168.9,128.7 L 171.2,244.3 L 173.4,236.8 L 175.7,244.3 L 177.9,248.0 L 180.2,248.0 L 182.4,248.0 L 184.7,248.0 L 186.9,248.0 L 189.2,248.0 L 191.4,248.0 L 193.7,214.4 L 195.9,28.0 L 198.2,236.8 L 200.5,244.3 L 202.7,229.4 L 205.0,248.0 L 207.2,244.3 L 209.5,244.3 L 211.7,244.3 L 214.0,244.3 L 216.2,195.8 L 218.5,248.0 L 220.7,248.0 L 223.0,248.0 L 225.2,248.0 L 227.5,236.8 L 229.7,248.0 L 232.0,248.0 L 234.2,248.0 L 236.5,240.5 L 238.7,248.0 L 241.0,248.0 L 243.3,240.5 L 245.5,244.3 L 247.8,248.0 L 250.0,248.0 L 252.3,244.3 L 254.5,244.3 L 256.8,244.3 L 259.0,225.6 L 261.3,248.0 L 263.5,248.0 L 265.8,248.0 L 268.0,233.1 L 270.3,248.0 L 272.5,248.0 L 274.8,248.0 L 277.0,248.0 L 279.3,248.0 L 281.5,248.0 L 283.8,248.0 L 286.1,248.0 L 288.3,248.0 L 290.6,248.0 L 292.8,248.0 L 295.1,248.0 L 297.3,248.0 L 299.6,248.0 L 301.8,248.0 L 304.1,248.0 L 306.3,248.0 L 308.6,248.0 L 310.8,248.0 L 313.1,248.0 L 315.3,248.0 L 317.6,248.0 L 319.8,248.0 L 322.1,248.0 L 324.4,248.0 L 326.6,248.0 L 328.9,248.0 L 331.1,248.0 L 333.4,244.3 L 335.6,248.0 L 337.9,248.0 L 340.1,233.1 L 342.4,225.6 L 344.6,248.0 L 346.9,248.0 L 349.1,248.0 L 351.4,248.0 L 353.6,248.0 L 355.9,248.0 L 358.1,236.8 L 360.4,248.0 L 362.6,248.0 L 364.9,248.0 L 367.2,248.0 L 369.4,248.0 L 371.7,248.0 L 373.9,248.0 L 376.2,248.0 L 378.4,248.0 L 380.7,248.0 L 382.9,248.0 L 385.2,248.0 L 387.4,248.0 L 389.7,199.5 L 391.9,214.4 L 394.2,248.0 L 396.4,248.0 L 398.7,248.0 L 400.9,248.0 L 403.2,248.0 L 405.5,248.0 L 407.7,248.0 L 410.0,248.0 L 412.2,248.0 L 414.5,248.0 L 416.7,248.0 L 419.0,248.0 L 421.2,248.0 L 423.5,248.0 L 425.7,248.0 L 428.0,248.0 L 430.2,248.0 L 432.5,248.0 L 434.7,248.0 L 437.0,248.0 L 439.2,248.0 L 441.5,248.0 L 443.7,244.3 L 446.0,248.0 L 448.3,248.0 L 450.5,240.5 L 452.8,248.0 L 455.0,248.0 L 457.3,248.0 L 459.5,248.0 L 461.8,248.0 L 464.0,248.0 L 466.3,248.0 L 468.5,248.0 L 470.8,248.0 L 473.0,248.0 L 475.3,248.0 L 477.5,248.0 L 479.8,248.0 L 482.0,240.5 L 484.3,236.8 L 486.5,248.0 L 488.8,248.0 L 491.1,214.4 L 493.3,248.0 L 495.6,248.0 L 497.8,248.0 L 500.1,248.0 L 502.3,248.0 L 504.6,248.0 L 506.8,188.3 L 509.1,180.9 L 511.3,248.0 L 513.6,248.0 L 515.8,248.0 L 518.1,248.0 L 520.3,248.0 L 522.6,244.3 L 524.8,248.0 L 527.1,248.0 L 529.4,248.0 L 531.6,248.0 L 533.9,248.0 L 536.1,248.0 L 538.4,248.0 L 540.6,248.0 L 542.9,248.0 L 545.1,248.0 L 547.4,248.0 L 549.6,248.0 L 551.9,248.0 L 554.1,248.0 L 556.4,248.0 L 558.6,248.0 L 560.9,248.0 L 563.1,248.0 L 565.4,248.0 L 567.6,248.0 L 569.9,248.0 L 572.2,248.0 L 574.4,248.0 L 576.7,248.0 L 578.9,240.5 L 581.2,248.0 L 583.4,248.0 L 585.7,248.0 L 587.9,80.2 L 590.2,233.1 L 592.4,229.4 L 594.7,244.3 L 596.9,203.3 L 599.2,236.8 L 601.4,221.9 L 603.7,236.8 L 605.9,244.3 L 608.2,210.7 L 610.5,248.0 L 612.7,244.3 L 615.0,143.6 L 617.2,244.3 L 619.5,221.9 L 621.7,236.8 L 624.0,225.6 L 626.2,244.3 L 628.5,236.8 L 630.7,244.3 L 633.0,244.3 L 635.2,244.3 L 637.5,244.3 L 639.7,244.3 L 642.0,244.3 L 644.2,244.3 L 646.5,244.3 L 648.7,244.3 L 651.0,244.3 L 653.3,244.3 L 655.5,128.7 L 657.8,80.2 L 660.0,240.5 L 662.3,244.3 L 664.5,244.3 L 666.8,244.3 L 669.0,240.5 L 671.3,244.3 L 673.5,244.3 L 675.8,244.3 L 678.0,244.3 L 680.3,244.3 L 682.5,244.3 L 684.8,236.8 L 687.0,236.8 L 689.3,236.8 L 691.5,233.1 L 693.8,221.9 L 696.1,244.3 L 698.3,244.3 L 700.6,244.3 L 702.8,221.9 L 705.1,244.3 L 707.3,244.3 L 709.6,240.5 L 711.8,244.3 L 714.1,244.3 L 716.3,236.8 L 718.6,236.8 L 720.8,180.9 L 723.1,199.5 L 725.3,244.3 L 727.6,240.5 L 729.8,240.5 L 732.1,244.3 L 734.4,240.5 L 736.6,244.3 L 738.9,244.3 L 741.1,236.8 L 743.4,244.3 L 745.6,244.3 L 747.9,244.3 L 750.1,240.5 L 752.4,240.5 L 754.6,244.3 L 756.9,240.5 L 759.1,244.3 L 761.4,244.3 L 763.6,244.3 L 765.9,244.3 L 768.1,218.2 L 770.4,244.3 L 772.6,244.3 L 774.9,244.3 L 777.2,244.3 L 779.4,244.3 L 781.7,244.3 L 783.9,162.2 L 786.2,177.2 L 788.4,244.3 L 790.7,244.3 L 792.9,240.5 L 795.2,240.5 L 797.4,244.3 L 799.7,244.3 L 801.9,244.3 L 804.2,240.5 L 806.4,240.5 L 808.7,244.3 L 810.9,240.5 L 813.2,244.3 L 815.5,244.3 L 817.7,214.4 L 820.0,248.0 L 822.2,248.0 L 824.5,248.0 L 826.7,248.0 L 829.0,248.0 L 831.2,248.0 L 833.5,244.3 L 835.7,248.0 L 838.0,248.0 L 840.2,236.8 L 842.5,248.0 L 844.7,248.0 L 847.0,229.4 L 849.2,229.4 L 851.5,192.1 L 853.7,203.3 L 856.0,210.7 L 856.0,248.0 Z" fill="url(#areaGrad)" clip-path="url(#chartClip)"/>

  <!-- line -->
  <polyline points="36.0,248.0 38.3,248.0 40.5,248.0 42.8,229.4 45.0,244.3 47.3,248.0 49.5,248.0 51.8,248.0 54.0,248.0 56.3,248.0 58.5,248.0 60.8,236.8 63.0,248.0 65.3,244.3 67.5,188.3 69.8,248.0 72.0,248.0 74.3,248.0 76.5,248.0 78.8,248.0 81.1,229.4 83.3,248.0 85.6,248.0 87.8,248.0 90.1,248.0 92.3,233.1 94.6,248.0 96.8,225.6 99.1,248.0 101.3,225.6 103.6,248.0 105.8,244.3 108.1,248.0 110.3,248.0 112.6,248.0 114.8,248.0 117.1,248.0 119.4,248.0 121.6,248.0 123.9,248.0 126.1,248.0 128.4,248.0 130.6,248.0 132.9,248.0 135.1,248.0 137.4,248.0 139.6,248.0 141.9,248.0 144.1,248.0 146.4,248.0 148.6,248.0 150.9,248.0 153.1,248.0 155.4,248.0 157.6,248.0 159.9,248.0 162.2,248.0 164.4,240.5 166.7,244.3 168.9,128.7 171.2,244.3 173.4,236.8 175.7,244.3 177.9,248.0 180.2,248.0 182.4,248.0 184.7,248.0 186.9,248.0 189.2,248.0 191.4,248.0 193.7,214.4 195.9,28.0 198.2,236.8 200.5,244.3 202.7,229.4 205.0,248.0 207.2,244.3 209.5,244.3 211.7,244.3 214.0,244.3 216.2,195.8 218.5,248.0 220.7,248.0 223.0,248.0 225.2,248.0 227.5,236.8 229.7,248.0 232.0,248.0 234.2,248.0 236.5,240.5 238.7,248.0 241.0,248.0 243.3,240.5 245.5,244.3 247.8,248.0 250.0,248.0 252.3,244.3 254.5,244.3 256.8,244.3 259.0,225.6 261.3,248.0 263.5,248.0 265.8,248.0 268.0,233.1 270.3,248.0 272.5,248.0 274.8,248.0 277.0,248.0 279.3,248.0 281.5,248.0 283.8,248.0 286.1,248.0 288.3,248.0 290.6,248.0 292.8,248.0 295.1,248.0 297.3,248.0 299.6,248.0 301.8,248.0 304.1,248.0 306.3,248.0 308.6,248.0 310.8,248.0 313.1,248.0 315.3,248.0 317.6,248.0 319.8,248.0 322.1,248.0 324.4,248.0 326.6,248.0 328.9,248.0 331.1,248.0 333.4,244.3 335.6,248.0 337.9,248.0 340.1,233.1 342.4,225.6 344.6,248.0 346.9,248.0 349.1,248.0 351.4,248.0 353.6,248.0 355.9,248.0 358.1,236.8 360.4,248.0 362.6,248.0 364.9,248.0 367.2,248.0 369.4,248.0 371.7,248.0 373.9,248.0 376.2,248.0 378.4,248.0 380.7,248.0 382.9,248.0 385.2,248.0 387.4,248.0 389.7,199.5 391.9,214.4 394.2,248.0 396.4,248.0 398.7,248.0 400.9,248.0 403.2,248.0 405.5,248.0 407.7,248.0 410.0,248.0 412.2,248.0 414.5,248.0 416.7,248.0 419.0,248.0 421.2,248.0 423.5,248.0 425.7,248.0 428.0,248.0 430.2,248.0 432.5,248.0 434.7,248.0 437.0,248.0 439.2,248.0 441.5,248.0 443.7,244.3 446.0,248.0 448.3,248.0 450.5,240.5 452.8,248.0 455.0,248.0 457.3,248.0 459.5,248.0 461.8,248.0 464.0,248.0 466.3,248.0 468.5,248.0 470.8,248.0 473.0,248.0 475.3,248.0 477.5,248.0 479.8,248.0 482.0,240.5 484.3,236.8 486.5,248.0 488.8,248.0 491.1,214.4 493.3,248.0 495.6,248.0 497.8,248.0 500.1,248.0 502.3,248.0 504.6,248.0 506.8,188.3 509.1,180.9 511.3,248.0 513.6,248.0 515.8,248.0 518.1,248.0 520.3,248.0 522.6,244.3 524.8,248.0 527.1,248.0 529.4,248.0 531.6,248.0 533.9,248.0 536.1,248.0 538.4,248.0 540.6,248.0 542.9,248.0 545.1,248.0 547.4,248.0 549.6,248.0 551.9,248.0 554.1,248.0 556.4,248.0 558.6,248.0 560.9,248.0 563.1,248.0 565.4,248.0 567.6,248.0 569.9,248.0 572.2,248.0 574.4,248.0 576.7,248.0 578.9,240.5 581.2,248.0 583.4,248.0 585.7,248.0 587.9,80.2 590.2,233.1 592.4,229.4 594.7,244.3 596.9,203.3 599.2,236.8 601.4,221.9 603.7,236.8 605.9,244.3 608.2,210.7 610.5,248.0 612.7,244.3 615.0,143.6 617.2,244.3 619.5,221.9 621.7,236.8 624.0,225.6 626.2,244.3 628.5,236.8 630.7,244.3 633.0,244.3 635.2,244.3 637.5,244.3 639.7,244.3 642.0,244.3 644.2,244.3 646.5,244.3 648.7,244.3 651.0,244.3 653.3,244.3 655.5,128.7 657.8,80.2 660.0,240.5 662.3,244.3 664.5,244.3 666.8,244.3 669.0,240.5 671.3,244.3 673.5,244.3 675.8,244.3 678.0,244.3 680.3,244.3 682.5,244.3 684.8,236.8 687.0,236.8 689.3,236.8 691.5,233.1 693.8,221.9 696.1,244.3 698.3,244.3 700.6,244.3 702.8,221.9 705.1,244.3 707.3,244.3 709.6,240.5 711.8,244.3 714.1,244.3 716.3,236.8 718.6,236.8 720.8,180.9 723.1,199.5 725.3,244.3 727.6,240.5 729.8,240.5 732.1,244.3 734.4,240.5 736.6,244.3 738.9,244.3 741.1,236.8 743.4,244.3 745.6,244.3 747.9,244.3 750.1,240.5 752.4,240.5 754.6,244.3 756.9,240.5 759.1,244.3 761.4,244.3 763.6,244.3 765.9,244.3 768.1,218.2 770.4,244.3 772.6,244.3 774.9,244.3 777.2,244.3 779.4,244.3 781.7,244.3 783.9,162.2 786.2,177.2 788.4,244.3 790.7,244.3 792.9,240.5 795.2,240.5 797.4,244.3 799.7,244.3 801.9,244.3 804.2,240.5 806.4,240.5 808.7,244.3 810.9,240.5 813.2,244.3 815.5,244.3 817.7,214.4 820.0,248.0 822.2,248.0 824.5,248.0 826.7,248.0 829.0,248.0 831.2,248.0 833.5,244.3 835.7,248.0 838.0,248.0 840.2,236.8 842.5,248.0 844.7,248.0 847.0,229.4 849.2,229.4 851.5,192.1 853.7,203.3 856.0,210.7" fill="none" stroke="#22d3ee" stroke-width="1.5" stroke-linejoin="round" stroke-linecap="round" clip-path="url(#chartClip)" opacity="0.9"/>

  <!-- peak dot -->
  <circle cx="195.9" cy="28.0" r="3" fill="#22d3ee" clip-path="url(#chartClip)"/>
  <circle cx="195.9" cy="28.0" r="6" fill="#22d3ee" fill-opacity="0.15" clip-path="url(#chartClip)"/>
  <text x="203.9" y="24" font-family="'SF Mono','Fira Code',monospace" font-size="8" fill="#22d3ee" opacity="0.7">59 on 2025-06-27</text>

  <!-- x-axis month labels -->
  <text x="36.0" y="264" font-family="'SF Mono','Fira Code',monospace" font-size="9" fill="#484f58">Apr</text><text x="67.5" y="264" font-family="'SF Mono','Fira Code',monospace" font-size="9" fill="#484f58">May</text><text x="137.4" y="264" font-family="'SF Mono','Fira Code',monospace" font-size="9" fill="#484f58">Jun</text><text x="205.0" y="264" font-family="'SF Mono','Fira Code',monospace" font-size="9" fill="#484f58">Jul</text><text x="274.8" y="264" font-family="'SF Mono','Fira Code',monospace" font-size="9" fill="#484f58">Aug</text><text x="344.6" y="264" font-family="'SF Mono','Fira Code',monospace" font-size="9" fill="#484f58">Sep</text><text x="412.2" y="264" font-family="'SF Mono','Fira Code',monospace" font-size="9" fill="#484f58">Oct</text><text x="482.0" y="264" font-family="'SF Mono','Fira Code',monospace" font-size="9" fill="#484f58">Nov</text><text x="549.6" y="264" font-family="'SF Mono','Fira Code',monospace" font-size="9" fill="#484f58">Dec</text><text x="619.5" y="264" font-family="'SF Mono','Fira Code',monospace" font-size="9" fill="#484f58">Jan</text><text x="689.3" y="264" font-family="'SF Mono','Fira Code',monospace" font-size="9" fill="#484f58">Feb</text><text x="752.4" y="264" font-family="'SF Mono','Fira Code',monospace" font-size="9" fill="#484f58">Mar</text><text x="822.2" y="264" font-family="'SF Mono','Fira Code',monospace" font-size="9" fill="#484f58">Apr</text>

  <!-- footer -->
  <text x="24" y="280" font-family="'SF Mono','Fira Code',monospace" font-size="9" fill="#30363d">770 contributions  ·  43.6% consistency  ·  159 active days</text>

</svg>