<svg width="880" height="288" viewBox="0 0 880 288" xmlns="http://www.w3.org/2000/svg">
  <defs>
    <linearGradient id="areaGrad" x1="0" y1="0" x2="0" y2="1">
      <stop offset="0%" stop-color="#22d3ee" stop-opacity="0.15"/>
      <stop offset="100%" stop-color="#22d3ee" stop-opacity="0.01"/>
    </linearGradient>
    <clipPath id="chartClip">
      <rect x="36" y="28" width="820" height="220"/>
    </clipPath>
  </defs>

  <!-- card -->
  <rect width="880" height="288" rx="14" fill="#010409"/>
  <rect width="880" height="288" rx="14" fill="none" stroke="#21262d" stroke-width="1"/>

  <!-- top accent -->
  <rect x="24" y="0" width="80" height="2" rx="1" fill="#22d3ee" opacity="0.8"/>

  <!-- header -->
  <text x="24" y="20" font-family="'SF Mono','Fira Code',monospace" font-size="9" letter-spacing="2" fill="#30363d">DAILY CONTRIBUTIONS  ·  LAST 365 DAYS</text>

  <!-- gridlines + y labels -->
  
    <line x1="36" y1="193.0" x2="856" y2="193.0" stroke="#161b22" stroke-width="1"/>
    <text x="30" y="197" text-anchor="end" font-family="'SF Mono','Fira Code',monospace" font-size="8" fill="#30363d">5</text>
    <line x1="36" y1="138.0" x2="856" y2="138.0" stroke="#161b22" stroke-width="1"/>
    <text x="30" y="142" text-anchor="end" font-family="'SF Mono','Fira Code',monospace" font-size="8" fill="#30363d">10</text>
    <line x1="36" y1="83.0" x2="856" y2="83.0" stroke="#161b22" stroke-width="1"/>
    <text x="30" y="87" text-anchor="end" font-family="'SF Mono','Fira Code',monospace" font-size="8" fill="#30363d">14</text>
    <line x1="36" y1="28.0" x2="856" y2="28.0" stroke="#161b22" stroke-width="1"/>
    <text x="30" y="32" text-anchor="end" font-family="'SF Mono','Fira Code',monospace" font-size="8" fill="#30363d">19</text>

  <!-- area fill -->
  <path d="M 36.0,248.0 L 36.0,236.4 L 64.3,224.8 L 92.6,236.4 L 120.8,236.4 L 149.1,143.8 L 177.4,213.3 L 205.7,190.1 L 233.9,224.8 L 262.2,190.1 L 290.5,224.8 L 318.8,224.8 L 347.0,236.4 L 375.3,236.4 L 403.6,236.4 L 431.9,190.1 L 460.1,190.1 L 488.4,213.3 L 516.7,190.1 L 545.0,190.1 L 573.2,74.3 L 601.5,109.1 L 629.8,28.0 L 658.1,109.1 L 686.3,224.8 L 714.6,236.4 L 742.9,236.4 L 771.2,190.1 L 799.4,224.8 L 827.7,248.0 L 856.0,248.0 L 856.0,248.0 Z" fill="url(#areaGrad)" clip-path="url(#chartClip)"/>

  <!-- line -->
  <polyline points="36.0,236.4 64.3,224.8 92.6,236.4 120.8,236.4 149.1,143.8 177.4,213.3 205.7,190.1 233.9,224.8 262.2,190.1 290.5,224.8 318.8,224.8 347.0,236.4 375.3,236.4 403.6,236.4 431.9,190.1 460.1,190.1 488.4,213.3 516.7,190.1 545.0,190.1 573.2,74.3 601.5,109.1 629.8,28.0 658.1,109.1 686.3,224.8 714.6,236.4 742.9,236.4 771.2,190.1 799.4,224.8 827.7,248.0 856.0,248.0" fill="none" stroke="#22d3ee" stroke-width="1.5" stroke-linejoin="round" stroke-linecap="round" clip-path="url(#chartClip)" opacity="0.9"/>

  <!-- peak dot -->
  <circle cx="629.8" cy="28.0" r="3" fill="#22d3ee" clip-path="url(#chartClip)"/>
  <circle cx="629.8" cy="28.0" r="6" fill="#22d3ee" fill-opacity="0.15" clip-path="url(#chartClip)"/>
  <text x="637.8" y="24" font-family="'SF Mono','Fira Code',monospace" font-size="8" fill="#22d3ee" opacity="0.7">19 on 2026-04-16</text>

  <!-- x-axis month labels -->
  <text x="36.0" y="264" font-family="'SF Mono','Fira Code',monospace" font-size="9" fill="#484f58">Mar</text><text x="205.7" y="264" font-family="'SF Mono','Fira Code',monospace" font-size="9" fill="#484f58">Apr</text>

  <!-- footer -->
  <text x="24" y="280" font-family="'SF Mono','Fira Code',monospace" font-size="9" fill="#30363d">128 contributions  ·  93.3% consistency  ·  28 active days</text>

</svg>